<svg width="250" height="70" viewBox="0 0 250 70" fill="none" xmlns="http://www.w3.org/2000/svg">
<style>
    @import url('https://fonts.googleapis.com/css2?family=Space+Grotesk:wght@700&display=swap');
</style>
<defs>
    <linearGradient id="grad1" x1="0%" y1="0%" x2="100%" y2="0%">
      <stop offset="0%" style="stop-color:#FF0000;stop-opacity:1" />
      <stop offset="100%" style="stop-color:#D60000;stop-opacity:1" />
    </linearGradient>
    <filter id="dropshadow" height="130%">
      <feGaussianBlur in="SourceAlpha" stdDeviation="1"/>
      <feOffset dx="0" dy="2" result="offsetblur"/>
      <feComponentTransfer>
        <feFuncA type="linear" slope="0.5"/>
      </feComponentTransfer>
      <feMerge> 
        <feMergeNode/>
        <feMergeNode in="SourceGraphic"/> 
      </feMerge>
    </filter>
     <filter id="inner-shadow">
      <feOffset dx='0' dy='-2'/>
      <feGaussianBlur stdDeviation='2' result='offset-blur'/>
      <feComposite operator='out' in='SourceGraphic' in2='offset-blur' result='inverse'/>
      <feFlood flood-color='black' flood-opacity='0.5' result='color'/>
      <feComposite operator='in' in='color' in2='inverse' result='shadow'/>
      <feComposite operator='over' in='shadow' in2='SourceGraphic'/>
    </filter>
</defs>
<g filter="url(#dropshadow)">
    <path d="M12.3,61.2c-2.7-1.3-4.9-3.4-6.5-6.2C4.1,52.2,3.3,49,3.3,45.5V18.4c0-2.3,0.4-4.4,1.1-6.2c0.8-1.8,2-3.4,3.6-4.7 c1.6-1.3,3.6-2.2,5.9-2.7L13.8,4h13.7v8.9h-8.2c-0.2,1.3-0.3,2.5-0.3,3.8v7.2h8.5v7.7h-8.5v12.2c0,3.3,0.6,5.7,1.7,7.2 c1.1,1.5,2.9,2.3,5.2,2.3h1.5V61h-2.1C18.1,61.2,15,62.5,12.3,61.2z" fill="url(#grad1)"/>
    <path d="M51.1,61.2c-3.2,0-6-0.8-8.4-2.4c-2.4-1.6-4.2-3.8-5.4-6.6c-1.2-2.8-1.8-6.1-1.8-9.8V28.1c0-3.7,0.6-6.9,1.8-9.7 c1.2-2.8,3-5,5.4-6.6c2.4-1.6,5.2-2.4,8.4-2.4c3.2,0,6,0.8,8.4,2.4c2.4,1.6,4.2,3.8,5.4,6.6c1.2,2.8,1.8,6.1,1.8,9.7v14.3 c0,3.7-0.6,6.9-1.8,9.8c-1.2,2.8-3,5-5.4,6.6C57.1,60.4,54.3,61.2,51.1,61.2z M51.1,53.4c1.3,0,2.4-0.4,3.4-1.3 c1-0.9,1.7-2.1,2.1-3.7c0.4-1.6,0.6-3.6,0.6-5.9V28.1c0-2.3-0.2-4.3-0.6-5.9c-0.4-1.6-1.1-2.9-2.1-3.7c-1-0.9-2.1-1.3-3.4-1.3 c-1.3,0-2.4,0.4-3.4,1.3c-1,0.9-1.7,2.1-2.1,3.7c-0.4,1.6-0.6,3.6-0.6,5.9v14.3c0,2.3,0.2,4.3,0.6,5.9c0.4,1.6,1.1,2.9,2.1,3.7 C48.6,53,49.8,53.4,51.1,53.4z" fill="url(#grad1)"/>
    <path d="M78.6,41.4h10.9l3.4-9.7h-10.3l-2.6,7.3L78.6,41.4z M96.8,61H86.2l-3.9-11.4H74.1l-3.9,11.4H59.5l14.4-40.2h10.6L96.8,61z" fill="url(#grad1)"/>
    <path d="M110.1,5.2h10.3v43.5h-10.3V5.2z M109.9,61h10.6v-8.3h-10.6V61z" fill="url(#grad1)"/>
    <path d="M129.5,5.2h10.3v43.5h-10.3V5.2z M129.3,61h10.6v-8.3h-10.6V61z" fill="url(#grad1)"/>
    <path d="M174.1,61h-9.9L151,39.8v21.2h-9.8V5.2h9.8v20.2L164,5.2h10.1l-10.8,17.4L174.1,61z" fill="url(#grad1)"/>
    <path d="M198.8,61.2c-3.2,0-6-0.8-8.4-2.4c-2.4-1.6-4.2-3.8-5.4-6.6c-1.2-2.8-1.8-6.1-1.8-9.8V28.1c0-3.7,0.6-6.9,1.8-9.7 c1.2-2.8,3-5,5.4-6.6c2.4-1.6,5.2-2.4,8.4-2.4c3.2,0,6,0.8,8.4,2.4c2.4,1.6,4.2,3.8,5.4,6.6c1.2,2.8,1.8,6.1,1.8,9.7v14.3 c0,3.7-0.6,6.9-1.8,9.8c-1.2,2.8-3,5-5.4,6.6C204.8,60.4,202,61.2,198.8,61.2z M198.8,53.4c1.3,0,2.4-0.4,3.4-1.3 c1-0.9,1.7-2.1,2.1-3.7c0.4-1.6,0.6-3.6,0.6-5.9V28.1c0-2.3-0.2-4.3-0.6-5.9c-0.4-1.6-1.1-2.9-2.1-3.7c-1-0.9-2.1-1.3-3.4-1.3 c-1.3,0-2.4,0.4-3.4,1.3c-1,0.9-1.7,2.1-2.1,3.7c-0.4,1.6-0.6,3.6-0.6,5.9v14.3c0,2.3,0.2,4.3,0.6,5.9c0.4,1.6,1.1,2.9,2.1,3.7 C196.4,53,197.5,53.4,198.8,53.4z" fill="url(#grad1)"/>
    <path d="M220.8,61.2c-2.7-1.3-4.9-3.4-6.5-6.2c-1.6-2.8-2.4-6-2.4-9.6V5.2h10.3v39.8c0,2.3,0.4,3.9,1.1,4.9c0.7,1,1.8,1.5,3.2,1.5 c1.4,0,2.5-0.5,3.2-1.5c0.7-1,1.1-2.6,1.1-4.9V5.2h10.3v39.8c0,3.6-0.8,6.8-2.4,9.6c-1.6,2.8-3.8,4.9-6.5,6.2 C226.2,62.5,223.4,61.2,220.8,61.2z" fill="url(#grad1)"/>
    <path d="M239,33.3c-0.5-0.6-1-1.1-1.5-1.5l-0.1-0.1c-1-0.9-2.2-1.4-3.5-1.4h-2.1V5.2h10.3v14.7c2.6-1.9,5.5-2.8,8.8-2.8 c2.1,0,4.1,0.4,5.9,1.3l-2.2,8.8c-1.2-0.5-2.4-0.8-3.7-0.8c-2,0-3.8,0.6-5.3,1.9c-1.5,1.3-2.3,3-2.3,5.3v13.2h-4.3V33.3z" fill="url(#grad1)"/>
</g>
<text x="12" y="52" font-family="'Space Grotesk', sans-serif" font-size="50" font-weight="700" fill="#15151C" style="filter: url(#inner-shadow);">Rally</text>
<text x="148" y="52" font-family="'Space Grotesk', sans-serif" font-size="50" font-weight="700" fill="#15151C" style="filter: url(#inner-shadow);">World</text>
</svg>
