<?xml version="1.0" encoding="UTF-8"?>
<svg id="Layer_2" data-name="Layer 2" xmlns="http://www.w3.org/2000/svg" viewBox="0 0 277.58 153.38">
  <defs>
    <style>
      .cls-1 {
        opacity: .23;
      }

      .cls-2 {
        fill: #fff;
        stroke-width: 0px;
      }
    </style>
  </defs>
  <g id="Layer_1-2" data-name="Layer 1">
    <g class="cls-1">
      <path class="cls-2" d="M273.26,9.04c-4.19-5.68-10.82-9.04-17.87-9.04h-27.25c-8.38,0-15.9,4.7-19.67,11.91-5.41-2.95-11.7-4.52-18.65-4.52s-13.02,1.51-18.41,4.35c-3.79-7.1-11.25-11.74-19.58-11.74h-28.72c-4.5,0-8.82,1.36-12.45,3.84-2.06,1.39-3.91,3.15-5.43,5.21-3.45,4.68-4.89,10.49-4.11,16.16,10.11,5.04,18.18,17.03,18.18,29.5v1.89c0,2.46-.8,8.41-4.25,14.33,6.61,21.22,13.24,42.5,13.25,42.52,1.87,5.88,5.02,11.09,9.25,15.37,1.74,1.78,3.67,3.39,5.77,4.83.15.1.3.2.45.3,6.34,4.11,13.67,6.28,21.19,6.28,9.01,0,17.46-2.95,24.45-8.55,6.77,5.6,15.15,8.55,24.29,8.55,7.56,0,15.02-2.3,21.51-6.63,7.38-4.87,12.55-11.73,14.99-19.85l26.38-84.97c2.09-6.73.86-14.06-3.32-19.74ZM227.11,108.78c-.77,2.65-2.39,4.74-4.97,6.44-2.57,1.72-5.16,2.55-7.91,2.55-3.52,0-6.4-1.01-8.79-3.08-2.5-2.17-4.07-4.87-4.79-8.25-2.43-10.41-4.89-23.13-7.32-37.85-.13-2.11-1.74-3.55-4-3.55s-3.94,1.52-4,3.7c-.29,3.64-1.31,9.55-3.05,17.56-.83,3.8-1.63,7.46-2.39,10.99-.75,3.51-1.29,6-1.62,7.48-.38,1.68-.51,2.34-.56,2.71-.57,2.88-1.97,5.24-4.29,7.18-2.59,2.08-5.54,3.11-8.99,3.11-2.82,0-5.36-.76-7.76-2.31-2.62-1.79-4.4-4.19-5.38-7.28l-10.91-35-14.85-47.66h23.28l4.99,19.66c1.63,6.22,3.22,12.34,4.78,18.38,1.51,6.33,2.41,11.09,2.68,14.11.08,2.18,1.7,3.68,4.01,3.68.8,0,2.76-.26,3.79-2.75.12-.3.2-.62.21-.94.33-6.48,2.5-17.4,6.45-32.46,2.19-8.28,6.68-12.13,14.12-12.13s11.6,3.83,13.59,12.08c2.14,8.92,3.58,15.07,4.26,18.28,1.24,5.96,2.01,10.75,2.28,14.23.06,1.8,1.35,3.69,4.09,3.69.79,0,2.75-.26,3.79-2.74.13-.3.2-.62.22-.94.26-4.86,2.77-15.77,7.44-32.42l5.62-19.73h21.84l-25.86,83.26Z"/>
      <path class="cls-2" d="M98.25,52.15v6.66c0,5.16-4.18,9.34-9.33,9.34h-31.15l-17.3,16.64v-38.02c0-3.17,2.57-5.74,5.75-5.74h40.92c6.13,0,11.11,4.98,11.11,11.12Z"/>
      <path class="cls-2" d="M135.85,25.52c-5.78-9.72-14.6-17.4-25.19-21.68C104.63,1.39,98.03.04,91.1.04H9.22C4.13.04,0,4.17,0,9.26v134.24c0,2.72,1.1,5.2,2.89,6.98,1.79,1.79,4.26,2.9,6.99,2.9,2.94,0,5.78-1.07,8-3l43.18-37.69c3.14-2.75,7.95-2.23,10.43,1.12l15.97,21.54c2.29,3.09,5.92,4.92,9.77,4.92h35.99c2.39,0,4.33-1.94,4.33-4.34v-15.74c0-2.69-.89-5.3-2.53-7.43l-10.91-14.16c7.81-7.6,13.25-16.78,16.27-25.42,1.89-5.38,2.84-10.55,2.84-15.01v-5.7c-.01-9.86-2.69-19.08-7.37-26.95ZM121.3,121.05l-21.67-.26s-16.62-22.4-23.18-35.67h-15.41l-37.41,36.55V31.79c0-5.01,4.06-9.07,9.06-9.07h58.41c3.42,0,6.82.9,10.02,2.49,10.11,5.04,18.18,17.03,18.18,29.5v1.89c0,2.46-.8,8.41-4.25,14.33-3.16,5.44-8.56,10.86-17.65,13.56l25.15,34.12c.74,1.02.01,2.45-1.25,2.44Z"/>
    </g>
  </g>
</svg>